<?xml version="1.0" standalone="no"?>
<!DOCTYPE svg PUBLIC "-//W3C//DTD SVG 20010904//EN"
 "http://www.w3.org/TR/2001/REC-SVG-20010904/DTD/svg10.dtd">
<svg version="1.0" xmlns="http://www.w3.org/2000/svg"
 width="1500.000000pt" height="1500.000000pt" viewBox="0 0 1500.000000 1500.000000"
 preserveAspectRatio="xMidYMid meet">
<metadata>
Created by potrace 1.14, written by Peter Selinger 2001-2017
</metadata>
<g transform="translate(0.000000,1500.000000) scale(0.100000,-0.100000)"
fill="#000000" stroke="none">
<path d="M8081 14826 c6 -6 47 -13 114 -20 l50 -5 -50 13 c-48 14 -123 21
-114 12z"/>
<path d="M10475 14483 c11 -12 97 -60 190 -108 371 -191 411 -214 630 -362
224 -150 322 -220 376 -265 120 -101 200 -165 368 -293 238 -181 357 -285 522
-454 152 -156 182 -189 259 -286 30 -39 63 -79 72 -90 70 -83 180 -223 212
-268 41 -58 56 -85 127 -230 24 -48 50 -95 58 -105 9 -10 31 -38 50 -62 19
-25 70 -78 113 -119 128 -121 182 -196 388 -536 144 -238 235 -408 294 -550
21 -49 72 -166 114 -260 78 -177 275 -748 338 -980 51 -189 75 -264 84 -270
12 -7 -9 121 -46 290 -19 84 -213 700 -243 770 -5 11 -17 40 -27 65 -18 47
-46 113 -69 165 -8 17 -46 104 -86 195 -111 255 -199 432 -302 608 -20 35 -37
65 -37 67 0 2 -32 59 -71 127 -99 170 -337 524 -478 713 -38 51 -245 296 -304
360 -10 11 -51 58 -90 105 -106 126 -481 493 -662 649 -175 151 -572 454 -683
522 -59 36 -147 92 -197 124 -49 33 -102 66 -116 75 -14 8 -87 52 -162 97
-112 68 -401 216 -582 298 -22 10 -44 20 -50 23 -5 3 -1 -4 10 -15z"/>
<path d="M7027 14224 c-1 -1 -81 -5 -177 -8 -96 -4 -191 -9 -210 -11 -19 -2
-69 -6 -110 -10 -41 -3 -93 -8 -115 -10 -22 -2 -69 -7 -105 -10 -36 -4 -74 -8
-85 -10 -11 -2 -47 -7 -80 -10 -119 -12 -352 -50 -460 -75 -44 -11 -91 -21
-105 -24 -401 -73 -1068 -310 -1557 -555 -283 -140 -433 -230 -728 -435 -487
-338 -759 -565 -1114 -931 -314 -322 -622 -703 -808 -995 -297 -468 -522 -915
-653 -1300 -12 -36 -26 -74 -31 -85 -44 -102 -160 -498 -185 -635 -3 -14 -16
-68 -29 -120 -47 -185 -66 -283 -80 -405 -3 -27 -10 -75 -15 -105 -11 -64 -37
-278 -45 -365 -2 -33 -8 -96 -12 -140 -10 -110 -10 -707 0 -830 5 -55 10 -120
12 -145 9 -134 23 -294 31 -365 7 -64 32 -217 49 -295 7 -33 11 -53 36 -190
69 -381 287 -1054 475 -1468 13 -29 24 -54 24 -57 0 -26 256 -532 345 -680
104 -176 289 -455 393 -595 76 -103 211 -277 237 -306 5 -7 26 -31 45 -55 33
-42 174 -201 249 -283 236 -256 691 -665 886 -796 28 -19 104 -75 170 -125
158 -120 195 -145 490 -322 773 -466 1611 -769 2535 -917 103 -16 145 -22 230
-31 30 -3 71 -8 90 -10 19 -2 94 -7 165 -10 72 -4 162 -9 200 -11 76 -5 546
-5 635 0 208 11 327 19 340 21 14 3 85 11 179 20 24 2 61 7 82 10 22 3 58 8
82 11 54 7 215 32 247 39 14 3 72 14 130 24 108 20 412 90 510 117 257 72 663
211 820 281 25 11 79 35 120 53 450 198 912 467 1305 762 123 92 393 312 420
343 6 6 57 54 115 105 221 198 511 504 800 846 110 131 359 482 455 644 21 36
71 115 110 175 93 143 94 145 155 255 45 81 78 125 87 116 2 -1 -17 -65 -42
-141 -24 -76 -43 -140 -41 -142 6 -6 44 43 71 92 97 176 269 530 310 640 27
72 56 148 66 170 96 224 143 360 214 614 30 108 60 212 65 231 33 109 39 187
34 400 -5 214 -9 289 -17 297 -20 19 -83 -145 -126 -332 -67 -283 -213 -762
-301 -984 -224 -565 -436 -977 -746 -1446 -95 -144 -311 -442 -381 -526 -12
-13 -60 -71 -109 -129 -486 -582 -1061 -1075 -1728 -1484 -59 -36 -110 -66
-112 -66 -2 0 -38 -21 -81 -46 -43 -25 -152 -82 -243 -126 -91 -44 -210 -103
-265 -130 -184 -92 -285 -131 -700 -274 -113 -39 -348 -104 -595 -164 -80 -20
-322 -67 -380 -74 -20 -3 -47 -7 -60 -10 -24 -5 -96 -15 -150 -21 -14 -1 -47
-5 -75 -9 -71 -9 -139 -15 -220 -21 -38 -3 -95 -7 -125 -10 -151 -14 -736 -20
-890 -11 -30 2 -111 7 -180 11 -69 4 -138 8 -155 10 -16 2 -58 7 -92 10 -34 3
-70 7 -80 9 -10 2 -43 7 -73 12 -30 4 -57 8 -60 9 -14 3 -90 15 -130 20 -129
17 -250 39 -380 71 -80 20 -152 37 -160 39 -95 20 -369 97 -518 146 -103 34
-232 76 -287 94 -103 34 -302 111 -320 124 -5 4 -26 14 -45 21 -35 14 -194 88
-350 163 -67 32 -236 126 -399 222 -93 55 -266 169 -446 293 -56 39 -317 233
-325 241 -3 4 -27 24 -55 46 -27 21 -52 42 -55 45 -3 3 -52 45 -110 95 -216
185 -388 359 -635 640 -38 44 -72 82 -76 85 -6 6 -156 211 -311 425 -59 83
-112 164 -117 180 l-10 30 17 -25 c9 -13 58 -76 107 -140 50 -63 135 -173 190
-245 54 -71 128 -164 164 -205 117 -136 445 -471 521 -533 41 -33 100 -81 130
-106 30 -24 -24 34 -120 130 -97 96 -204 206 -239 246 -34 39 -72 83 -84 96
-151 165 -208 234 -351 424 -161 216 -266 369 -318 464 -14 25 -48 81 -75 125
-204 326 -410 771 -583 1259 -36 102 -139 421 -144 449 -3 11 -25 100 -50 196
-61 229 -117 559 -141 820 -3 36 -8 83 -10 105 -26 259 -26 922 0 1165 3 25 7
74 10 110 2 36 7 81 10 100 2 19 7 54 10 78 12 96 17 132 36 242 11 63 22 133
25 155 36 260 271 1027 414 1350 9 22 37 85 61 140 167 386 462 892 717 1230
341 452 785 911 1227 1266 736 591 1674 1067 2520 1278 232 58 577 124 770
146 28 4 57 8 65 10 29 8 158 20 325 31 55 3 120 8 145 10 57 4 557 4 715 0
144 -4 368 -17 376 -22 3 -1 28 -6 55 -9 27 -3 90 -13 139 -21 50 -8 104 -17
120 -20 218 -35 443 -83 700 -148 198 -50 486 -153 762 -272 17 -8 34 -14 38
-14 15 0 511 -248 635 -317 203 -113 219 -122 360 -211 294 -186 568 -386 780
-571 160 -140 446 -420 633 -620 96 -103 331 -381 390 -462 10 -13 46 -62 81
-109 87 -118 163 -231 219 -325 26 -44 77 -125 113 -180 36 -55 92 -148 126
-207 33 -60 62 -108 64 -108 5 0 -26 81 -36 95 -4 6 -23 39 -42 75 -101 187
-321 538 -444 705 -152 208 -267 357 -318 414 -89 98 -231 260 -274 312 -44
55 -213 225 -397 399 -117 111 -476 396 -660 523 -98 68 -325 217 -330 217 -3
0 -28 15 -57 34 -29 18 -79 47 -110 65 -32 17 -82 44 -110 60 -340 186 -908
423 -1248 522 -126 36 -230 70 -230 76 0 12 116 -8 255 -45 236 -61 632 -204
913 -329 178 -79 536 -263 668 -343 36 -22 68 -40 69 -40 10 0 325 -193 425
-260 135 -91 165 -107 243 -131 93 -28 178 -86 389 -261 108 -91 203 -171 210
-179 8 -8 32 -30 54 -49 33 -31 168 -174 319 -339 22 -25 66 -72 97 -106 71
-76 357 -459 459 -615 82 -124 225 -358 279 -455 198 -358 329 -632 463 -970
85 -215 132 -360 201 -615 8 -30 31 -113 51 -185 20 -71 38 -137 40 -146 2 -8
10 -44 19 -80 9 -35 18 -73 20 -84 2 -11 12 -54 21 -95 9 -41 18 -84 20 -95
13 -70 48 -195 55 -195 19 0 19 19 5 174 -6 75 -8 89 -20 146 -2 14 -7 40 -10
58 -10 62 -33 147 -83 307 -28 88 -71 228 -97 310 -26 83 -80 229 -122 325
-41 96 -95 229 -120 295 -112 302 -307 725 -411 892 -129 207 -371 571 -454
679 -41 55 -110 148 -153 208 -65 90 -172 226 -195 246 -3 3 -28 32 -55 65
-212 254 -346 396 -560 591 -66 60 -135 124 -155 142 -19 19 -51 46 -70 60
-19 15 -37 29 -40 32 -30 32 -509 381 -585 426 -55 34 -171 104 -257 157 -161
99 -278 161 -427 227 -47 21 -131 59 -186 85 -167 78 -293 130 -445 183 -80
27 -197 69 -260 92 -101 38 -233 76 -510 151 -151 40 -291 68 -372 75 -132 11
-148 11 -148 2 0 -8 28 -16 215 -62 61 -15 117 -29 125 -31 531 -135 635 -168
848 -273 102 -50 117 -62 77 -62 -40 0 -108 20 -355 105 -250 86 -779 205
-1065 240 -53 6 -125 17 -150 21 -72 15 -190 29 -310 39 -44 4 -96 8 -115 10
-118 11 -753 27 -763 19z"/>
<path d="M2345 13488 c-98 -72 -188 -150 -350 -304 -77 -73 -151 -142 -164
-153 -13 -12 -22 -23 -20 -25 3 -4 72 53 184 153 17 14 66 58 110 96 44 39 91
81 105 93 14 13 69 60 123 104 53 45 97 82 97 84 0 11 -22 -1 -85 -48z"/>
<path d="M6607 12694 c-1 -1 -47 -5 -102 -8 -55 -4 -113 -9 -130 -11 -16 -2
-57 -7 -90 -11 -33 -3 -63 -8 -66 -10 -3 -1 -28 -6 -55 -9 -198 -25 -526 -117
-762 -215 -944 -388 -1676 -1168 -2075 -2210 -103 -270 -210 -644 -241 -841
-3 -20 -7 -42 -10 -50 -3 -8 -7 -32 -10 -54 -3 -22 -7 -49 -10 -61 -2 -12 -7
-45 -11 -75 -3 -30 -8 -61 -10 -69 -2 -8 -7 -42 -11 -75 -3 -33 -8 -71 -10
-85 -2 -14 -6 -63 -10 -110 -3 -47 -8 -93 -10 -103 -5 -30 -17 -373 -17 -507
0 -129 10 -434 18 -530 32 -385 80 -679 166 -1010 141 -547 380 -1052 697
-1470 98 -130 154 -192 312 -350 205 -205 386 -346 625 -488 384 -229 825
-384 1295 -457 25 -4 52 -9 60 -10 8 -1 44 -6 80 -10 109 -11 110 -14 8 -55
-52 -21 -121 -50 -154 -65 -365 -167 -642 -281 -892 -366 -186 -63 -223 -69
-322 -49 -30 6 -73 13 -95 16 -22 3 -51 7 -65 10 -34 5 -165 22 -220 28 -163
19 -496 25 -633 12 -270 -26 -412 -97 -431 -216 -20 -131 90 -218 319 -253 87
-14 351 -15 470 -3 28 3 73 8 101 11 28 3 75 10 105 15 30 6 69 13 88 16 56 9
301 73 380 99 40 14 80 25 88 25 8 0 85 -21 171 -46 355 -105 979 -349 1677
-656 720 -317 1247 -509 1585 -577 58 -12 116 -23 130 -26 87 -18 209 -33 335
-42 178 -13 571 -7 660 11 11 2 47 7 80 11 261 29 604 141 821 266 78 45 203
126 214 138 3 3 32 29 65 56 82 68 168 157 258 266 163 198 341 527 453 837
36 97 104 305 104 314 0 3 -19 13 -42 23 -24 9 -52 21 -63 26 -76 33 -70 35
-115 -49 -210 -390 -533 -667 -945 -812 -143 -50 -390 -104 -570 -125 -27 -3
-63 -8 -80 -10 -198 -26 -773 -26 -1040 0 -100 10 -165 17 -193 21 -19 2 -62
7 -95 10 -34 3 -69 7 -77 9 -8 3 -42 7 -75 10 -60 6 -98 11 -145 20 -14 2 -45
7 -70 10 -41 6 -191 29 -250 39 -14 3 -56 9 -95 15 -70 11 -109 17 -155 26
-14 3 -42 8 -64 11 -21 3 -48 8 -60 10 -11 2 -73 13 -136 24 -63 11 -126 22
-140 25 -56 10 -207 37 -235 41 -16 3 -75 14 -130 24 -55 11 -113 22 -130 25
-32 5 -127 23 -160 29 -41 8 -201 38 -225 42 -14 3 -56 11 -95 19 -38 7 -97
18 -130 24 -73 13 -84 15 -210 41 -55 11 -111 22 -125 25 -74 14 -127 25 -145
28 -11 3 -39 8 -62 12 -24 4 -45 10 -48 14 -2 5 35 21 83 37 115 37 331 120
517 199 354 150 633 253 785 290 70 17 188 40 265 51 22 3 58 10 80 15 22 5
49 12 60 14 11 3 40 7 65 10 25 3 63 8 85 10 96 12 370 70 475 100 604 174
1076 452 1526 900 393 391 694 865 917 1445 70 182 160 471 183 590 3 14 7 33
10 42 10 34 61 279 68 333 4 23 8 50 10 61 2 12 7 45 11 75 3 30 10 84 15 120
5 36 12 99 15 140 4 41 8 84 10 97 25 154 26 886 1 1137 -2 17 -6 62 -10 100
-13 137 -17 170 -21 195 -2 14 -7 45 -10 70 -12 89 -39 243 -60 340 -9 41 -18
85 -21 98 -11 56 -44 184 -68 267 -238 815 -652 1465 -1231 1933 -106 86 -333
246 -375 265 -8 3 -37 20 -65 36 -58 34 -244 128 -330 166 -239 107 -609 216
-850 250 -22 3 -67 10 -100 15 -86 13 -177 23 -335 36 -69 6 -518 12 -523 8z
m283 -218 c92 -5 133 -10 265 -32 134 -22 327 -90 486 -169 90 -45 282 -162
322 -196 7 -5 48 -38 92 -73 335 -265 644 -684 871 -1178 98 -215 254 -634
254 -683 0 -9 -18 -12 -62 -11 l-63 1 -1 161 c0 150 -2 163 -23 193 -41 57
-67 64 -242 63 l-156 0 -1 159 c-1 169 -4 184 -53 232 -24 22 -38 27 -80 27
-62 0 -100 -21 -128 -70 -19 -34 -21 -54 -21 -193 l0 -155 -192 1 -193 2 -1
111 -1 111 99 83 c54 46 99 86 99 89 1 3 3 78 4 166 1 112 6 160 14 163 28 9
71 55 81 87 24 73 -9 153 -78 186 -117 57 -241 -43 -215 -174 6 -29 57 -90 83
-99 11 -3 14 -31 15 -141 l1 -137 -103 -91 -103 -90 0 -134 0 -135 -35 0 -35
0 0 155 c0 157 -7 193 -44 230 -40 40 -121 47 -174 15 -53 -32 -62 -68 -62
-243 l0 -154 -282 1 -281 1 -1 161 c-1 176 -6 191 -66 236 l-30 22 0 147 0
148 28 16 c108 64 92 237 -25 276 -20 6 -54 8 -81 4 -134 -20 -167 -209 -49
-280 l27 -16 0 -150 0 -150 -34 -30 c-44 -38 -50 -63 -52 -229 -1 -74 -2 -140
-3 -146 -1 -9 -77 -11 -278 -10 l-278 1 -1 156 c-2 171 -9 200 -63 238 -32 23
-104 28 -143 10 -13 -5 -35 -26 -48 -46 -25 -37 -29 -75 -30 -319 0 -41 0 -41
-40 -42 l-40 -2 0 133 c0 150 5 137 -90 217 -30 25 -68 59 -85 75 l-30 30 1
135 c1 87 5 135 12 138 79 26 115 153 64 222 -37 50 -82 72 -135 67 -98 -9
-160 -92 -140 -189 6 -30 57 -91 82 -100 12 -3 15 -36 16 -167 l1 -164 35 -31
c19 -17 64 -57 101 -90 l66 -58 0 -108 0 -108 -189 0 -189 0 0 155 c0 175 -9
208 -65 243 -72 45 -180 10 -205 -65 -7 -20 -13 -102 -13 -183 l-2 -147 -158
-2 c-177 -1 -204 -10 -241 -73 -18 -30 -20 -53 -21 -189 l0 -156 -72 -2 c-40
-2 -73 1 -73 5 0 9 71 246 98 329 166 495 407 938 686 1263 154 178 409 394
577 488 19 10 55 31 81 45 102 56 327 142 438 166 135 29 221 41 345 47 66 4
122 8 123 9 2 2 9 2 15 0 7 -2 59 -6 117 -9z m-1371 -1020 c34 -41 7 -98 -43
-89 -23 5 -35 22 -42 61 -3 15 34 42 57 42 9 0 22 -6 28 -14z m1323 -9 c24
-38 -6 -84 -51 -78 -43 5 -56 48 -24 83 18 20 61 17 75 -5z m1301 11 c26 -20
29 -56 6 -79 -34 -34 -93 -2 -82 44 6 24 30 47 48 47 6 0 19 -6 28 -12z m513
-1268 l31 0 0 -1885 -1 -1885 -1885 0 -1886 0 0 1883 c0 1813 0 1882 18 1887
13 4 3485 4 3723 0z m-4100 -532 l1 -188 -113 0 -112 0 -26 31 c-26 31 -26 34
-11 109 2 14 7 39 10 55 9 54 31 170 34 183 1 1 49 1 109 0 l107 -3 1 -187z
m4718 120 c8 -40 23 -110 31 -155 l17 -82 -29 -36 -28 -35 -105 0 -106 0 2
188 c1 103 2 188 3 190 0 1 46 2 100 2 l99 0 16 -72z m-4852 -411 l132 -2 3
-32 c2 -18 -1 -34 -6 -37 -7 -5 -224 -9 -292 -7 -14 1 -15 8 -9 41 4 22 5 40
3 40 -2 0 -1 5 2 10 5 8 11 7 20 0 9 -7 65 -12 147 -13z m4929 -4 c0 -16 2
-38 5 -50 2 -16 -1 -23 -11 -24 -8 0 -71 0 -140 0 -69 0 -131 0 -139 0 -9 1
-13 13 -12 39 l2 37 129 2 c73 1 133 7 139 13 17 17 26 11 27 -17z m-4941
-356 l145 -2 1 -280 0 -280 -140 1 c-88 0 -158 -5 -186 -13 -25 -7 -45 -13
-46 -13 0 0 0 24 2 53 1 28 5 127 8 219 4 92 9 177 11 188 2 10 5 46 7 79 3
58 3 59 28 55 14 -3 90 -6 170 -7z m4985 -48 c10 -106 14 -186 21 -362 l6
-179 -23 13 c-16 9 -74 13 -179 15 -85 1 -157 2 -160 3 -3 0 -5 126 -5 279 l0
277 150 3 c83 1 157 4 165 5 20 4 19 7 25 -54z m-5177 -781 c9 -9 57 -14 155
-15 78 -1 151 -2 163 -2 20 -1 20 -5 20 -279 l0 -279 -147 0 c-80 0 -158 -3
-173 -7 -20 -5 -26 -3 -27 11 -1 10 -3 27 -4 38 -6 44 -16 258 -19 398 -3 149
1 166 32 135z m5198 -190 c-4 -112 -9 -234 -13 -273 -3 -38 -6 -82 -6 -97 -1
-24 -4 -27 -24 -22 -13 4 -90 7 -171 8 l-147 1 0 273 c0 151 3 276 8 279 5 3
77 6 160 7 98 1 159 6 172 13 11 7 22 13 24 13 2 0 1 -91 -3 -202z m-4859
-703 c0 -32 -3 -35 -31 -36 -249 -4 -245 -3 -260 -24 -9 -11 -16 -18 -16 -15
-1 3 -4 22 -6 44 -3 21 -5 41 -6 45 -3 24 12 26 160 23 l159 -3 0 -34z m4807
-12 c-4 -32 -8 -60 -10 -62 -3 -3 -14 6 -25 18 -16 17 -31 22 -63 21 -22 -1
-80 -1 -127 -1 l-86 1 0 35 0 35 156 3 c86 1 157 4 159 5 1 1 -1 -24 -4 -55z
m-4808 -320 c1 -189 0 -193 -20 -194 -23 -1 -171 -1 -197 0 -9 1 -16 7 -16 14
-1 13 -2 20 -34 182 -10 55 -19 103 -19 107 0 3 17 24 38 45 l37 39 105 -1
106 0 0 -192z m4744 157 c16 -19 29 -45 30 -56 0 -23 -24 -169 -41 -249 l-11
-50 -92 2 c-50 1 -100 2 -111 2 -20 1 -21 6 -19 194 1 105 2 192 3 192 0 1 48
0 106 0 l105 -1 30 -34z m-4750 -638 c3 -1 6 -71 6 -156 1 -174 10 -203 74
-240 29 -18 54 -20 185 -22 82 -1 153 -2 156 -3 4 0 7 -71 8 -157 1 -173 9
-201 64 -234 41 -26 113 -26 150 -1 57 37 62 52 67 231 l5 165 187 0 187 0 0
-107 0 -107 -62 -53 c-34 -29 -80 -70 -103 -90 l-40 -38 0 -156 c1 -86 -1
-159 -4 -163 -3 -4 -19 -17 -36 -29 -41 -28 -67 -93 -59 -144 12 -71 82 -128
156 -128 80 0 157 88 145 165 -8 47 -31 92 -55 105 -44 23 -46 31 -45 170 2
109 5 136 18 145 8 7 54 47 100 89 l85 78 3 131 3 131 33 2 c19 1 36 -4 38
-11 3 -7 6 -82 7 -166 2 -167 7 -183 64 -220 39 -26 116 -25 154 2 54 38 61
67 63 238 l1 156 270 1 c149 0 275 -1 280 -3 7 -2 11 -53 10 -141 -1 -170 4
-198 49 -240 l36 -32 0 -150 c0 -144 -1 -150 -22 -161 -75 -40 -100 -132 -57
-208 38 -69 125 -93 200 -57 48 23 72 61 77 121 5 63 -13 102 -62 136 l-36 24
0 147 0 147 30 18 c56 32 66 72 66 241 -1 126 1 152 14 154 8 2 134 4 280 3
l265 0 5 -165 c3 -104 10 -173 17 -187 26 -44 62 -63 122 -63 49 0 61 4 89 29
18 17 37 42 42 56 6 15 10 95 10 179 l0 152 35 0 35 0 0 -127 c0 -147 -7 -133
120 -242 l85 -73 0 -134 0 -135 -38 -28 c-141 -104 -21 -323 143 -260 43 17
69 41 82 73 30 76 16 134 -45 184 l-42 34 1 159 1 158 -41 38 c-23 21 -68 61
-102 89 l-61 51 1 106 1 106 190 0 190 0 5 -165 c5 -154 7 -167 29 -197 13
-17 37 -37 53 -44 39 -16 123 -6 149 17 45 41 52 70 52 231 0 84 3 153 6 154
3 1 74 2 157 3 165 3 195 11 237 68 19 25 21 44 23 185 1 87 2 161 3 164 0 4
35 7 76 6 62 0 75 -3 75 -16 0 -44 -160 -552 -190 -603 -5 -10 -10 -23 -10
-29 0 -6 -6 -25 -14 -42 -8 -18 -29 -66 -46 -107 -290 -679 -752 -1207 -1273
-1453 -176 -84 -377 -143 -547 -162 -30 -3 -73 -8 -95 -12 -50 -7 -334 -6
-384 1 -20 3 -56 8 -81 11 -360 47 -703 199 -1015 451 -207 167 -411 391 -572
629 -180 266 -370 656 -484 995 -43 124 -99 312 -99 328 0 8 125 11 150 4z
m972 -1239 c15 -17 16 -38 4 -69 -7 -18 -60 -18 -75 0 -22 26 -21 55 2 71 28
20 50 19 69 -2z m1311 3 c20 -15 23 -56 5 -74 -7 -7 -24 -12 -38 -12 -48 0
-67 45 -33 82 19 21 41 23 66 4z m1301 8 c49 -19 38 -94 -13 -94 -52 0 -73 55
-33 88 18 14 24 15 46 6z"/>
<path d="M5194 9973 c-30 -14 -65 -61 -71 -93 -2 -8 -3 -719 -4 -1580 0 -1120
3 -1573 11 -1594 12 -33 43 -63 80 -78 16 -7 577 -10 1602 -10 1536 -1 1577 0
1609 19 19 10 42 33 52 51 18 31 19 83 19 1611 0 1738 4 1619 -60 1666 -27 20
-44 20 -1617 22 -1419 2 -1593 0 -1621 -14z m3014 -1670 l-3 -1406 -1402 -1
-1403 -1 0 1408 0 1407 1405 0 1405 0 -2 -1407z"/>
<path d="M5642 9468 c-9 -9 -12 -280 -12 -1158 0 -1080 1 -1148 18 -1162 15
-12 167 -14 1160 -14 1255 1 1161 -4 1163 61 0 17 1 530 1 1142 1 891 -1 1115
-12 1128 -11 13 -137 15 -1159 15 -879 0 -1150 -3 -1159 -12z m2228 -1160 c0
-847 -3 -1068 -12 -1069 -17 -1 -2053 -1 -2095 0 l-33 1 0 1068 0 1069 1070 0
1070 0 0 -1069z"/>
<path d="M6303 9139 c-106 -19 -243 -120 -292 -216 -46 -92 -48 -122 -48 -756
0 -507 2 -601 15 -627 35 -73 130 -98 199 -53 63 40 67 58 67 310 l0 223 26 1
c30 1 171 1 220 0 l35 -1 0 -217 c0 -277 8 -305 106 -335 58 -17 124 12 154
67 21 40 21 46 20 650 -1 643 0 633 -48 734 -42 90 -174 193 -277 216 -48 11
-127 13 -177 4z m155 -296 c65 -49 66 -52 67 -299 0 -144 -3 -228 -10 -233 -8
-6 -191 -8 -256 -2 -13 1 -15 28 -14 224 1 122 3 229 4 238 1 22 65 83 93 90
38 10 89 2 116 -18z"/>
<path d="M7184 9139 c-62 -18 -102 -83 -94 -154 6 -55 67 -115 117 -115 l21 0
0 -563 0 -562 -46 -15 c-65 -21 -95 -67 -90 -136 5 -63 30 -99 84 -120 34 -13
73 -15 212 -12 154 3 173 5 199 24 49 36 75 122 51 169 -20 39 -62 75 -95 81
l-33 6 0 563 0 563 34 6 c40 8 91 60 101 104 14 67 -28 143 -91 161 -39 11
-331 11 -370 0z"/>
<path d="M691 11700 c-18 -33 -30 -60 -28 -60 7 0 69 111 65 116 -2 2 -19 -24
-37 -56z"/>
<path d="M14151 10400 c14 -31 19 -36 19 -24 0 6 -7 19 -16 30 -14 18 -14 18
-3 -6z"/>
<path d="M13950 10245 c0 -3 13 -35 29 -72 16 -38 42 -102 56 -143 15 -41 34
-82 42 -90 17 -17 -44 156 -87 248 -25 53 -40 75 -40 57z"/>
<path d="M14271 9035 c5 -28 11 -59 13 -70 8 -41 30 -110 38 -120 10 -11 7 10
-18 128 -20 90 -49 145 -33 62z"/>
<path d="M13888 8380 c2 -16 9 -30 14 -30 6 0 7 7 4 16 -3 9 -6 22 -6 30 0 8
-4 14 -8 14 -5 0 -7 -13 -4 -30z"/>
<path d="M14102 7390 c0 -14 2 -19 5 -12 2 6 2 18 0 25 -3 6 -5 1 -5 -13z"/>
<path d="M14626 7313 c-17 -76 -30 -161 -41 -268 -3 -27 -8 -66 -10 -85 -5
-37 -13 -120 -20 -205 -10 -116 -17 -191 -20 -207 -5 -23 -17 -141 -19 -187
-1 -21 1 -47 4 -57 13 -35 77 174 94 306 20 150 40 716 26 725 -5 3 -11 -7
-14 -22z"/>
<path d="M14337 6573 c-8 -44 -9 -108 -2 -102 9 9 22 118 15 129 -4 6 -10 -6
-13 -27z"/>
<path d="M14691 6035 c-7 -16 -19 -61 -28 -100 -13 -60 -45 -174 -120 -430 -8
-27 -18 -63 -23 -80 -58 -198 -93 -314 -110 -362 -69 -190 -125 -381 -114
-392 13 -13 65 75 103 174 13 33 29 73 37 90 14 31 67 192 110 335 36 120 48
125 40 15 -3 -49 -8 -101 -11 -115 -3 -13 -7 -42 -11 -64 -3 -22 -7 -43 -9
-46 -3 -5 -81 -287 -113 -410 -22 -83 -47 -200 -58 -270 -15 -98 -15 -101 17
-77 39 30 140 274 195 472 20 72 28 127 30 195 1 52 4 113 8 135 9 54 15 93
21 135 2 19 7 46 9 60 2 14 7 47 11 73 4 27 8 57 10 66 2 10 6 40 9 67 3 27 9
69 12 94 9 63 11 399 4 435 l-7 30 -12 -30z"/>
<path d="M14495 5944 c-15 -32 -33 -72 -40 -89 -26 -59 -95 -244 -120 -321
-32 -99 -74 -319 -65 -335 25 -40 204 397 256 624 12 51 16 146 6 163 -8 15
-14 9 -37 -42z"/>
<path d="M13814 4277 c-61 -70 -197 -331 -331 -637 -98 -224 -141 -295 -293
-485 -110 -137 -177 -233 -182 -261 -4 -27 27 -20 72 16 44 35 180 177 240
250 25 30 48 57 51 60 8 8 74 119 97 166 11 22 28 68 37 103 19 75 50 141 128
281 51 90 137 263 137 275 0 3 11 28 24 57 31 68 56 144 56 168 0 29 -15 32
-36 7z"/>
<path d="M13737 3558 c-30 -41 -50 -78 -44 -84 2 -2 15 13 29 33 52 79 62 114
15 51z"/>
<path d="M13289 3468 c-17 -24 -103 -140 -191 -258 -177 -237 -233 -318 -223
-328 7 -7 21 8 126 133 109 129 209 264 261 353 41 70 73 142 63 142 -2 0 -18
-19 -36 -42z"/>
<path d="M13722 3197 c-34 -56 -47 -87 -39 -87 8 0 80 130 75 135 -2 3 -18
-19 -36 -48z"/>
<path d="M12619 2443 c-19 -16 -72 -68 -119 -118 -47 -49 -119 -123 -160 -165
-181 -182 -299 -314 -362 -403 -42 -60 -42 -60 -11 -42 30 17 65 48 193 169
36 33 123 115 193 180 142 133 223 226 280 318 54 89 49 113 -14 61z"/>
</g>
</svg>
