<?xml version="1.0" standalone="no"?>
<!DOCTYPE svg PUBLIC "-//W3C//DTD SVG 20010904//EN"
 "http://www.w3.org/TR/2001/REC-SVG-20010904/DTD/svg10.dtd">
<svg version="1.0" xmlns="http://www.w3.org/2000/svg"
 width="2250.000000pt" height="2250.000000pt" viewBox="0 0 2250.000000 2250.000000"
 preserveAspectRatio="xMidYMid meet">
<metadata>
Created by potrace 1.14, written by Peter Selinger 2001-2017
</metadata>
<g transform="translate(0.000000,2250.000000) scale(0.100000,-0.100000)"
fill="#000000" stroke="none">
<path d="M11025 21454 c-33 -13 -148 -56 -255 -95 -107 -39 -204 -74 -215 -79
-56 -24 -206 -80 -214 -80 -5 0 -22 -6 -38 -14 -15 -8 -59 -27 -98 -41 -38
-15 -83 -33 -100 -40 -16 -7 -48 -20 -70 -29 -267 -110 -621 -301 -815 -441
-47 -33 -91 -65 -99 -69 -14 -9 -14 0 7 184 4 36 7 97 7 137 0 61 -4 75 -23
96 -52 56 -144 12 -303 -143 -203 -199 -285 -273 -374 -341 -126 -98 -209
-131 -284 -117 -25 5 -59 11 -76 14 -16 3 -66 7 -111 9 -322 11 -671 -175
-898 -480 -82 -110 -124 -186 -173 -315 -13 -36 -28 -68 -32 -72 -23 -25 -360
-26 -481 -3 -51 10 -185 19 -267 18 -167 -2 -244 -37 -433 -197 -166 -140
-328 -285 -506 -451 -318 -297 -1183 -1162 -1227 -1227 -16 -24 -38 -63 -49
-88 -11 -25 -24 -54 -29 -65 -5 -11 -32 -87 -60 -170 -77 -226 -118 -315 -187
-400 -97 -121 -186 -218 -323 -354 -115 -115 -242 -234 -464 -436 -160 -145
-449 -436 -536 -540 -205 -245 -335 -455 -459 -744 -88 -206 -194 -533 -235
-726 -3 -11 -16 -72 -30 -135 -14 -63 -28 -131 -31 -150 -2 -19 -6 -42 -9 -50
-4 -13 -23 -119 -41 -225 -2 -16 -7 -37 -9 -45 -2 -8 -7 -35 -10 -60 -3 -25
-8 -56 -10 -70 -8 -44 -14 -84 -20 -130 -3 -25 -7 -52 -10 -60 -2 -8 -7 -40
-10 -70 -3 -30 -8 -62 -10 -70 -2 -8 -7 -37 -10 -64 -3 -27 -10 -79 -15 -115
-22 -139 -30 -187 -34 -216 -2 -16 -9 -59 -15 -95 -5 -36 -13 -85 -16 -110 -4
-24 -8 -47 -10 -50 -1 -3 -6 -25 -9 -50 -3 -25 -8 -54 -10 -65 -50 -262 -48
-244 -28 -278 58 -97 256 -488 342 -677 156 -341 311 -761 374 -1017 8 -32 27
-105 41 -163 24 -94 67 -300 79 -375 20 -124 24 -154 21 -185 -3 -45 -18 -81
-41 -102 -38 -33 -118 -41 -188 -18 -16 6 -31 9 -33 7 -5 -6 -3 -444 2 -517 5
-56 21 -174 29 -205 2 -5 6 -23 10 -40 17 -66 92 -257 162 -413 13 -29 24 -54
24 -56 0 -3 10 -26 22 -53 12 -26 22 -50 22 -53 1 -3 14 -31 29 -64 15 -32 27
-61 27 -65 0 -3 7 -19 16 -36 9 -16 27 -56 40 -87 13 -32 36 -84 50 -115 14
-32 32 -71 39 -88 8 -16 36 -79 63 -140 516 -1145 722 -1652 943 -2321 l33
-102 41 -5 c70 -10 130 -43 192 -104 86 -86 139 -201 158 -343 3 -25 8 -52 10
-60 2 -8 7 -28 10 -45 2 -16 7 -39 10 -50 2 -11 9 -40 15 -65 60 -248 179
-536 298 -720 84 -129 233 -297 338 -380 88 -70 237 -153 351 -196 163 -62
193 -66 523 -69 168 -2 330 -6 360 -9 199 -24 373 -100 510 -225 142 -130 391
-253 639 -316 63 -16 77 -19 156 -30 22 -3 52 -8 67 -11 37 -8 287 -8 295 -1
5 6 77 -30 338 -168 44 -23 188 -98 320 -165 512 -262 727 -383 993 -562 64
-43 77 -48 116 -45 58 6 96 26 123 65 l22 33 16 -25 c13 -20 16 -49 15 -148
-1 -68 -2 -129 -1 -136 1 -9 12 -11 41 -7 21 3 54 8 72 10 18 2 53 7 78 10 25
3 63 7 85 10 22 2 56 6 75 9 19 3 80 10 135 16 55 6 118 12 140 15 22 2 72 7
110 11 39 3 84 8 100 9 17 2 71 6 120 10 50 3 108 8 130 10 237 24 877 24
1115 0 19 -2 67 -6 106 -10 39 -3 80 -7 90 -9 11 -2 42 -7 69 -10 157 -20 527
-101 615 -134 19 -7 46 -3 105 14 97 29 143 35 260 38 210 6 458 -73 743 -236
46 -27 86 -48 88 -48 2 0 23 -12 45 -27 62 -41 254 -62 307 -34 37 20 40 77 7
177 -5 18 1 26 37 46 115 64 355 135 588 174 14 3 69 14 122 26 150 33 188 15
316 -151 77 -101 143 -166 192 -191 45 -23 116 -37 106 -22 -11 18 -9 276 3
334 38 179 139 213 538 184 l62 -4 -2 176 c-2 171 -1 179 23 225 15 28 83 107
165 190 77 78 178 185 225 237 121 137 345 358 415 411 33 25 91 65 128 89
l68 43 36 -39 c20 -22 64 -70 99 -109 35 -38 90 -99 123 -134 60 -64 60 -64
67 -37 16 67 -15 197 -79 323 -15 28 -71 99 -126 158 -55 59 -104 120 -110
136 -17 49 6 63 219 133 185 61 200 64 280 62 93 -2 155 -26 228 -86 20 -17
40 -30 44 -30 4 0 -9 30 -29 66 -59 108 -51 154 35 213 72 50 135 63 317 65
152 3 176 5 223 26 58 25 134 101 158 159 27 63 53 177 56 248 2 37 5 70 8 73
9 8 391 469 456 550 295 367 580 799 832 1260 101 184 288 561 356 715 27 61
60 135 73 165 52 116 187 444 228 557 19 51 39 102 45 113 21 40 1 33 -77 -26
-249 -188 -439 -391 -633 -682 -83 -123 -116 -164 -154 -189 -64 -44 -114 -44
-180 -2 -27 16 -49 29 -50 27 -3 -5 -78 -240 -80 -252 -5 -24 -58 -186 -61
-186 -2 0 -2 15 0 33 3 30 6 61 20 245 4 39 3 72 0 72 -6 0 -88 -62 -180 -135
-60 -48 -185 -145 -430 -333 -137 -106 -258 -199 -267 -207 -9 -8 -198 -150
-420 -315 -222 -166 -410 -307 -418 -313 -63 -49 -729 -528 -874 -628 -43 -30
-122 -84 -175 -121 -117 -82 -675 -456 -786 -527 -44 -28 -87 -56 -95 -61
-231 -156 -351 -194 -457 -145 -54 25 -114 87 -146 153 -19 38 -40 54 -49 34
-1 -4 -57 -54 -122 -110 -157 -135 -220 -153 -267 -79 -17 27 -20 44 -16 102
3 39 8 78 12 88 6 15 4 16 -21 7 -35 -14 -94 -15 -164 -5 -150 21 -194 -4
-250 -147 -38 -99 -58 -99 -110 -2 -34 64 -61 91 -79 80 -5 -3 -12 -32 -17
-63 -4 -32 -8 -60 -9 -63 -1 -3 -5 -30 -9 -60 -9 -58 -9 -60 -22 -130 l-8 -45
-7 58 c-9 76 -37 110 -80 95 -38 -13 -93 -76 -126 -143 l-27 -54 -72 109 c-93
141 -166 230 -242 295 l-23 19 24 -49 c45 -89 74 -219 61 -271 -9 -36 -40 -30
-83 18 l-38 41 -8 -84 c-4 -46 -9 -93 -11 -104 -1 -11 -4 -37 -5 -58 -2 -35
-7 -40 -47 -60 -26 -12 -90 -65 -154 -128 -59 -59 -124 -114 -143 -123 -18 -9
-60 -19 -92 -21 -32 -3 -87 -7 -123 -10 -83 -7 -178 -16 -210 -20 -14 -2 -50
-7 -80 -10 -30 -4 -62 -9 -70 -10 -8 -2 -44 -6 -80 -10 -36 -4 -67 -8 -70 -10
-3 -2 -26 -6 -50 -10 -74 -10 -317 -62 -435 -93 l-110 -28 -135 33 c-136 34
-156 39 -375 88 -146 33 -152 34 -190 41 -16 3 -61 11 -100 19 -161 32 -366
69 -445 80 -67 9 -103 15 -120 20 -8 2 -40 7 -70 10 -30 3 -64 8 -75 10 -11 3
-40 7 -65 10 -25 3 -61 7 -80 10 -19 2 -57 7 -85 10 -27 3 -61 8 -75 10 -40 6
-123 15 -285 30 -33 3 -80 8 -105 10 -42 4 -77 7 -255 21 -148 11 -346 36
-415 52 -19 5 -38 9 -43 10 -25 5 -70 15 -127 28 -36 9 -72 17 -81 19 -9 2
-39 11 -65 20 -27 9 -56 18 -64 20 -150 34 -620 252 -830 385 -8 5 -38 23 -67
39 -56 33 -73 51 -48 51 26 0 93 38 136 77 80 73 116 176 89 258 l-13 38 -13
-31 c-28 -67 -114 -122 -229 -147 -15 -4 -167 -35 -195 -40 -94 -18 -79 -25
-187 82 -190 186 -469 453 -673 643 -14 14 -82 77 -151 141 -68 64 -144 135
-169 157 -25 22 -65 59 -90 83 -99 93 -191 179 -299 279 -170 157 -176 163
-320 299 -431 405 -930 904 -1181 1181 -47 52 -95 105 -107 117 -12 13 -78 88
-146 167 -111 128 -164 199 -235 317 -25 41 -162 314 -162 323 0 3 -14 36 -31
73 -17 38 -63 147 -101 243 -38 96 -76 189 -83 205 -7 17 -20 48 -28 70 -20
55 -104 259 -132 320 -42 93 -88 190 -91 194 -2 2 -23 -17 -48 -42 -79 -82
-134 -76 -208 23 -39 51 -81 166 -82 219 -1 103 78 189 159 171 32 -7 91 -43
108 -65 4 -5 5 6 3 25 -11 68 -18 115 -21 135 -1 11 -6 47 -10 80 -3 33 -8 71
-11 85 -5 32 -23 155 -29 200 -3 19 -7 46 -9 60 -3 14 -8 45 -11 70 -7 54 -15
114 -21 155 -3 17 -7 46 -9 65 -3 19 -7 46 -9 59 -3 13 -8 49 -12 80 -3 31 -8
64 -10 74 -1 10 -10 70 -19 135 -9 64 -19 128 -21 142 -3 14 -7 68 -9 121 -6
129 15 201 115 404 79 160 118 247 126 275 18 73 24 105 29 163 4 38 8 76 10
87 2 10 6 51 10 92 3 40 8 84 10 98 2 14 7 48 9 75 3 28 8 75 11 105 3 30 8
69 10 85 2 17 7 57 10 90 3 33 7 71 10 85 2 14 7 55 10 92 3 37 7 75 9 85 2
10 7 56 11 103 4 47 8 87 10 90 2 3 6 41 9 85 4 44 9 87 11 95 2 8 6 47 10 85
3 39 8 86 10 105 2 19 7 60 10 90 3 30 8 69 9 85 8 61 19 161 21 185 4 39 25
231 30 275 2 22 7 60 10 85 2 25 7 65 9 90 3 25 8 62 11 84 4 21 8 48 9 60 16
120 110 532 153 671 53 171 132 396 150 430 6 11 12 25 13 30 15 66 184 419
298 620 70 123 255 416 304 480 5 6 46 60 92 121 135 181 304 387 417 509 20
22 70 76 110 120 92 99 434 442 555 555 50 47 144 135 209 195 65 61 148 137
184 171 61 57 137 126 200 183 43 39 243 224 271 251 53 51 137 119 215 172
79 55 381 238 392 238 5 0 141 81 698 413 240 143 554 325 685 396 110 60 484
247 550 275 25 11 86 37 135 58 50 21 98 43 107 48 10 6 23 10 30 10 7 1 31 9
53 20 22 11 47 19 56 20 8 0 19 4 25 9 5 4 79 31 164 59 215 71 441 132 625
168 21 4 115 22 150 29 37 7 230 34 285 40 30 3 70 8 88 11 18 2 72 6 120 10
48 3 114 7 147 9 70 5 389 5 655 0 199 -3 297 10 391 52 91 41 156 129 184
251 13 53 19 418 7 464 -3 15 -7 15 -39 2 -60 -26 -145 -20 -219 15 -53 25
-142 85 -164 112 -19 22 -177 142 -210 159 -57 29 -174 70 -196 69 -11 0 -46
-12 -79 -25z m-8095 -13021 c41 -47 96 -152 165 -318 56 -135 64 -154 101
-231 19 -39 50 -93 68 -122 19 -28 37 -56 41 -62 13 -21 -138 56 -192 98 -42
34 -90 104 -102 151 -6 20 -13 68 -16 106 -10 107 -48 209 -131 346 -19 31
-34 62 -34 68 0 6 13 11 29 11 22 0 39 -11 71 -47z m-245 -76 c15 -45 28 -89
30 -97 2 -9 14 -49 28 -90 28 -85 47 -150 43 -150 -2 0 -45 53 -96 118 -52 64
-111 136 -131 159 -34 37 -37 45 -29 73 12 41 28 60 65 76 45 19 61 3 90 -89z"/>
<path d="M14288 20825 c-2 -2 -80 -5 -173 -7 -155 -4 -174 -6 -218 -28 -62
-31 -132 -106 -163 -175 -26 -56 -32 -62 -50 -47 -15 15 -94 43 -138 50 -99
16 -447 1 -539 -23 -104 -27 -218 -120 -262 -212 -64 -134 -52 -293 31 -425
42 -67 200 -217 299 -284 87 -59 253 -147 325 -174 19 -7 50 -19 68 -27 18 -8
40 -16 50 -18 9 -3 49 -14 87 -25 117 -34 262 -65 360 -75 28 -3 70 -8 95 -11
25 -3 96 -7 158 -9 63 -2 119 -8 125 -13 7 -5 32 -21 57 -34 51 -28 351 -202
392 -227 15 -9 71 -43 125 -75 478 -289 1113 -719 1940 -1313 109 -79 317
-228 463 -333 564 -404 678 -481 729 -495 103 -27 220 3 430 111 80 41 152 74
161 74 14 0 16 -19 13 -167 -4 -296 37 -467 226 -944 121 -306 198 -406 429
-561 59 -39 134 -99 168 -132 64 -65 144 -175 144 -200 0 -8 4 -17 9 -21 14
-8 58 -149 71 -225 12 -68 15 -236 6 -304 -15 -105 -18 -125 -32 -181 -9 -33
-24 -86 -35 -118 l-19 -57 76 -152 c41 -84 100 -195 130 -248 71 -123 75 -129
101 -167 13 -17 23 -36 23 -40 0 -5 8 -18 18 -29 9 -10 35 -44 56 -74 120
-170 323 -383 427 -448 90 -57 101 -80 103 -211 2 -85 6 -115 24 -153 28 -60
74 -96 115 -92 46 6 87 37 141 108 l38 50 -7 -60 c-8 -82 -15 -143 -21 -184
-3 -19 -7 -57 -10 -85 -2 -27 -11 -102 -19 -166 -38 -307 -42 -718 -10 -889
20 -108 43 -176 42 -124 -1 33 12 222 18 257 2 12 6 54 10 92 11 116 15 154
31 290 25 203 28 224 49 350 3 17 10 59 15 95 6 36 17 97 25 135 8 39 16 82
19 96 10 57 97 399 122 479 32 103 76 231 98 282 21 50 21 49 -21 31 -61 -25
-94 -58 -173 -176 -77 -114 -123 -157 -170 -157 l-26 0 0 213 c-1 199 -10 526
-18 592 -2 17 -7 80 -11 140 -3 61 -8 121 -10 135 -3 14 -7 54 -10 90 -3 35
-8 85 -10 110 -3 25 -8 68 -11 95 -3 28 -12 102 -19 165 -8 63 -17 139 -20
169 -4 30 -8 61 -10 70 -1 9 -6 41 -9 71 -7 56 -11 91 -20 158 -3 20 -8 62
-12 92 -7 60 -9 73 -18 140 -10 68 -15 110 -22 169 -3 30 -7 62 -9 71 -2 9 -6
50 -10 91 -3 41 -10 90 -14 110 -5 20 -111 200 -237 400 -125 200 -242 387
-259 414 -16 28 -161 258 -320 512 -160 255 -294 471 -300 481 -5 9 -95 153
-200 320 -104 166 -194 310 -200 320 -5 10 -28 47 -51 82 -84 135 -349 559
-403 645 -89 144 -183 256 -396 471 -303 305 -608 545 -995 781 -256 156 -607
330 -865 430 -49 19 -103 41 -120 48 -78 35 -386 135 -581 191 -194 54 -340
85 -471 99 -32 4 -74 9 -93 12 -36 6 -827 13 -832 8z"/>
<path d="M10297 14574 c-1 -1 -78 -5 -172 -8 -93 -4 -192 -9 -220 -11 -27 -2
-99 -6 -160 -10 -60 -3 -132 -8 -160 -10 -89 -6 -219 -16 -265 -20 -25 -2 -81
-7 -125 -10 -44 -3 -96 -8 -115 -10 -19 -1 -71 -6 -115 -10 -44 -3 -91 -8
-105 -10 -14 -2 -59 -7 -100 -10 -41 -3 -84 -7 -95 -9 -11 -2 -60 -7 -110 -12
-49 -4 -92 -8 -95 -9 -3 -1 -39 -5 -80 -9 -41 -5 -82 -10 -90 -11 -8 -1 -46
-6 -85 -9 -38 -4 -81 -9 -95 -11 -79 -11 -111 -15 -165 -21 -33 -3 -78 -9
-100 -13 -28 -5 -56 -2 -93 11 -145 48 -263 63 -497 63 -143 -1 -192 -5 -240
-19 -65 -19 -139 -56 -170 -83 -59 -52 -123 -169 -179 -333 -28 -79 -130 -451
-151 -550 -2 -8 -72 -285 -155 -615 -223 -875 -241 -948 -245 -965 -2 -8 -18
-71 -35 -140 -18 -69 -34 -135 -36 -147 -2 -12 -8 -33 -13 -45 -5 -13 -9 -25
-9 -28 0 -3 -5 -23 -10 -45 -6 -22 -13 -51 -16 -65 -3 -14 -12 -50 -20 -82 -8
-31 -18 -67 -20 -80 -3 -12 -50 -198 -105 -413 -54 -214 -156 -615 -226 -890
-69 -275 -181 -714 -247 -975 -113 -444 -121 -482 -124 -583 -4 -195 54 -315
186 -382 96 -49 213 -69 400 -68 293 1 424 34 515 128 72 76 79 99 275 885 40
157 73 292 75 300 4 17 43 175 50 203 3 9 7 25 9 35 2 9 23 93 46 186 23 93
44 176 45 185 2 9 4 16 5 16 1 0 3 7 5 15 17 86 89 360 94 361 3 0 15 2 26 4
11 2 40 7 65 10 55 7 99 13 144 20 39 5 269 32 336 39 25 3 68 7 95 10 28 3
79 8 115 12 36 3 72 7 80 9 8 1 54 6 101 9 47 4 98 9 115 11 16 2 63 6 104 10
41 3 91 8 110 10 19 2 69 7 110 10 41 3 98 8 125 10 28 2 82 7 120 10 39 3 88
8 110 10 22 2 67 7 100 10 33 3 76 8 95 10 19 2 66 7 103 10 37 4 77 8 87 10
10 2 47 6 82 10 91 9 143 23 228 62 198 90 372 256 423 403 10 29 15 74 14
130 -2 70 -7 95 -30 141 -37 75 -85 130 -160 183 -62 44 -181 108 -188 101 -2
-2 -44 -6 -94 -9 -49 -4 -110 -8 -135 -11 -25 -2 -81 -7 -125 -10 -135 -10
-178 -14 -235 -20 -54 -5 -102 -9 -245 -20 -38 -3 -81 -7 -95 -10 -14 -2 -64
-7 -112 -10 -49 -3 -96 -8 -105 -9 -10 -2 -53 -7 -96 -11 -43 -3 -86 -8 -95
-10 -9 -1 -46 -6 -82 -10 -36 -3 -72 -8 -80 -10 -8 -2 -44 -7 -80 -10 -36 -4
-74 -9 -85 -11 -11 -2 -58 -9 -105 -14 -47 -6 -96 -13 -110 -15 -99 -17 -303
-47 -342 -52 l-47 -5 10 37 c6 21 12 45 14 54 2 9 74 297 160 641 86 344 158
632 160 640 30 127 192 760 195 764 3 2 30 7 60 10 138 16 156 18 180 21 14 2
61 6 105 10 44 4 87 8 95 10 8 2 51 6 95 9 44 4 100 9 125 11 68 7 137 13 220
20 41 3 95 8 120 10 25 2 78 7 118 10 166 12 219 16 262 20 25 3 88 7 140 10
52 4 120 8 150 10 30 2 100 6 155 10 55 3 129 8 165 10 36 3 110 7 165 10 213
11 236 16 363 69 140 59 304 180 375 276 43 59 69 138 68 210 0 83 -5 102 -40
175 -48 98 -135 184 -256 254 -33 19 -97 34 -108 25z"/>
<path d="M14800 14424 c-63 -14 -169 -59 -200 -86 -32 -27 -92 -115 -120 -175
-49 -105 -139 -395 -174 -558 -1 -5 -5 -19 -9 -30 -3 -11 -8 -31 -11 -45 -2
-14 -20 -86 -39 -160 -28 -107 -227 -895 -243 -959 -2 -9 -26 -106 -55 -216
-28 -110 -61 -243 -74 -295 -13 -52 -71 -284 -130 -515 -59 -231 -109 -427
-110 -435 -2 -8 -25 -96 -50 -195 -25 -99 -48 -187 -50 -195 -1 -8 -51 -204
-110 -435 -58 -231 -108 -427 -110 -435 -2 -8 -24 -98 -50 -200 -26 -102 -48
-192 -50 -200 -2 -8 -29 -113 -59 -232 -68 -267 -66 -256 -67 -353 -2 -295
224 -637 483 -733 81 -30 110 -35 218 -35 131 -1 221 10 288 33 32 11 68 23
82 26 41 8 132 23 180 29 25 3 56 8 70 10 14 2 45 7 70 10 25 4 56 8 70 10 14
2 54 7 90 10 36 4 72 9 80 10 20 4 125 15 175 20 22 2 63 6 90 9 28 3 73 8
100 11 49 4 119 11 200 20 22 3 94 9 160 15 66 6 145 12 175 15 30 3 84 7 120
10 36 3 85 8 110 10 64 6 170 14 275 20 50 3 104 8 120 10 17 2 62 7 100 10
39 3 106 10 150 15 44 5 108 12 142 15 158 15 397 163 515 320 74 98 92 145
93 250 0 81 -3 97 -31 156 -41 85 -127 170 -236 233 l-83 47 -105 -6 c-58 -4
-118 -8 -133 -10 -15 -2 -67 -6 -115 -10 -48 -3 -116 -8 -152 -11 -104 -7
-190 -14 -260 -19 -36 -3 -94 -8 -130 -10 -36 -3 -89 -7 -117 -10 -29 -3 -79
-7 -110 -10 -156 -14 -320 -30 -408 -40 -197 -22 -324 -37 -345 -40 -14 -2
-65 -9 -115 -15 -49 -6 -115 -15 -145 -20 -30 -5 -77 -11 -103 -15 -26 -3 -71
-10 -100 -16 -29 -5 -74 -12 -100 -15 l-48 -6 7 28 c3 16 13 54 21 84 8 30 16
66 19 80 3 14 53 214 110 444 58 231 107 426 109 435 2 9 64 261 139 561 134
542 174 706 281 1145 31 127 69 284 85 350 16 66 34 143 40 170 16 69 14 61
60 250 92 382 109 451 114 478 2 15 7 35 10 45 3 9 7 28 10 42 3 14 7 34 10
45 10 41 97 424 121 535 14 63 34 153 45 200 32 148 53 296 46 332 -9 47 -55
94 -123 125 -58 27 -78 32 -203 59 -103 22 -421 27 -510 8z"/>
</g>
</svg>
